<svg width="69" height="69" viewBox="0 0 69 69" fill="none" xmlns="http://www.w3.org/2000/svg">
<path fill-rule="evenodd" clip-rule="evenodd" d="M36.0241 0.00401591C37.0165 -0.0425924 37.9911 0.317724 38.7751 1.02106L54.8221 14.8935C63.1816 19.4301 69 29.2421 69 40.6042C69 56.2828 57.975 69 44.3827 69C32.0774 69 21.8681 58.5632 20.0476 44.9572L7.91531 56.1446C7.42661 56.6235 6.85975 56.9847 6.24812 57.207C5.6365 57.4292 4.9925 57.508 4.35408 57.4386C3.71565 57.3693 3.09572 57.1532 2.53083 56.8032C1.96593 56.4531 1.4675 55.9762 1.06491 55.4004C0.662315 54.8247 0.363709 54.1619 0.186691 53.4509C0.00967315 52.74 -0.0421749 51.9954 0.0342004 51.261C0.110576 50.5266 0.313628 49.8172 0.631394 49.1747C0.949159 48.5323 1.37521 47.9697 1.88443 47.5201L21.8816 29.0507C22.2244 28.1622 22.6282 27.3253 23.0454 26.4877H12.7118C12.0796 26.4877 11.4536 26.3441 10.8695 26.065C10.2854 25.786 9.75473 25.3769 9.3077 24.8613C8.86066 24.3456 8.50605 23.7335 8.26412 23.0598C8.02219 22.386 7.89767 21.6639 7.89767 20.9347C7.89767 20.2055 8.02219 19.4834 8.26412 18.8096C8.50605 18.1359 8.86066 17.5238 9.3077 17.0081C9.75473 16.4925 10.2854 16.0834 10.8695 15.8044C11.4536 15.5253 12.0796 15.3817 12.7118 15.3817H33.0616C34.8065 14.3364 36.6758 13.5227 38.634 12.9814L33.7317 8.75056C33.0322 8.15695 32.5093 7.32795 32.2349 6.37756C31.9606 5.42717 31.9482 4.40207 32.1995 3.44323C32.4508 2.48439 32.9534 1.63891 33.6383 1.02304C34.3232 0.407177 35.1567 0.051183 36.0241 0.00401591ZM30.2754 38.204C30.2754 29.5481 36.806 22.5416 44.8765 22.5416C52.9469 22.5416 59.5128 29.5481 59.5128 38.204C59.5128 46.8599 52.9469 53.9071 44.8765 53.9071C36.806 53.9071 30.2754 46.8599 30.2754 38.204ZM44.8765 27.3014C50.5106 27.3014 55.1043 32.1612 55.1043 38.204C55.1043 44.2468 50.5106 49.1881 44.8765 49.1881C39.2424 49.1881 34.6839 44.2468 34.6839 38.204C34.6839 32.1612 39.2424 27.3014 44.8765 27.3014Z" fill="#F05D5E"/>
</svg>
