<svg width="69" height="69" viewBox="0 0 69 69" fill="none" xmlns="http://www.w3.org/2000/svg">
<path d="M46 36.8V32.2H50.6V36.8H46Z" fill="#F05D5E"/>
<path fill-rule="evenodd" clip-rule="evenodd" d="M34.5 1.93726L64.4 19.3789V49.6211L34.5 67.0625L4.59998 49.6211V19.3789L34.5 1.93726ZM29.1252 18.4C20.6613 18.4 13.8 25.2613 13.8 33.7252V35.2748C13.8 43.7387 20.6613 50.6 29.1252 50.6C31.5043 50.6 33.8508 50.0462 35.9788 48.9822L37.8286 48.0571L35.7714 43.9428L33.9216 44.8677C32.4324 45.6124 30.7902 46 29.1252 46C23.2018 46 18.4 41.1982 18.4 35.2748V33.7252C18.4 27.8018 23.2018 23 29.1252 23C30.7902 23 32.4324 23.3876 33.9216 24.1323L35.7714 25.0572L37.8286 20.9428L35.9788 20.0179C33.8508 18.9539 31.5043 18.4 29.1252 18.4ZM41.4 23V27.6H36.8V32.2H41.4V36.8H36.8V41.4H41.4V46H46V41.4H50.6V46H55.2V41.4H59.8V36.8H55.2V32.2H59.8V27.6H55.2V23H50.6V27.6H46V23H41.4Z" fill="#F05D5E"/>
</svg>
