<svg width="69" height="69" viewBox="0 0 69 69" fill="none" xmlns="http://www.w3.org/2000/svg">
<path fill-rule="evenodd" clip-rule="evenodd" d="M34.4701 68.7852L14.5571 61.974L10.1196 0.647949H58.8802L54.438 61.9644L34.4701 68.7852ZM48.6682 28.4072L49.7702 13.1837H34.4999H34.4788H19.1932L19.7481 20.7052H34.4788H34.4999H43.0804L42.525 28.4072H34.4788V28.4072H20.2925L20.8397 35.9285H34.4999V35.9285H41.9956L41.2871 45.6832L34.4788 47.9473V47.948L34.4731 47.9498L27.6747 45.688L27.2401 39.6893H21.1124L21.9676 51.499L34.4718 55.7761L34.4999 55.7665V55.7652L46.993 51.499L47.0848 50.2282L48.5193 30.4269L48.6682 28.4072Z" fill="#F05D5E"/>
</svg>
