<svg width="43" height="43" viewBox="0 0 43 43" fill="none" xmlns="http://www.w3.org/2000/svg">
<path d="M21.5001 0C20.6665 0 19.9907 0.675714 19.9907 1.50939V30.5739L14.8307 25.4139C14.2428 24.8259 13.2863 24.8259 12.6983 25.4139C12.1103 26.0018 12.1103 26.9584 12.6983 27.5463L20.4295 35.2776C20.7191 35.5671 21.1052 35.7163 21.4914 35.7163C21.8775 35.7163 22.2636 35.5671 22.5532 35.2776L30.2844 27.5463C30.8724 26.9584 30.8724 26.0018 30.2844 25.4139C29.6965 24.8259 28.7399 24.8259 28.152 25.4139L22.992 30.5739V1.50061C23.0007 0.666939 22.3338 0 21.5001 0Z" fill="#F05D5E"/>
<path d="M40.5518 41.4994V32.7502C40.5518 31.9166 39.876 31.2408 39.0424 31.2408C38.2087 31.2408 37.533 31.9166 37.533 32.7502V39.9988H5.45849V32.7502C5.45849 31.9166 4.78277 31.2408 3.95787 31.2408C3.13298 31.2408 2.44849 31.9166 2.44849 32.7502V41.4994C2.44849 42.3331 3.1242 43 3.95787 43H39.0424C39.876 43 40.5518 42.3331 40.5518 41.4994Z" fill="#F05D5E"/>
</svg>
