<svg width="69" height="69" viewBox="0 0 69 69" fill="none" xmlns="http://www.w3.org/2000/svg">
<path d="M5.15333 0C4.51918 0 4.04667 0.516782 4.10294 1.1484L9.44925 61.1161C9.50551 61.7477 10.0514 62.4034 10.6627 62.5731L33.3497 68.8722C33.9608 69.042 34.9607 69.042 35.572 68.8727L58.3279 62.5632C58.939 62.3937 59.4856 61.7381 59.5418 61.1067L64.8969 1.1484C64.9536 0.516782 64.4807 0 63.8465 0H5.15333ZM53.5113 13.7534C53.4608 14.3168 53.3734 15.2948 53.3172 15.9264L53.1763 17.4998C53.1195 18.1312 53.0388 19.0342 52.9962 19.5063C52.9537 19.9786 52.9134 20.3648 52.906 20.3648C52.8988 20.3648 52.374 20.3648 51.7398 20.3648H35.6529C35.0188 20.3648 34.4946 20.3648 34.4877 20.3648C34.4808 20.3648 33.9562 20.3648 33.322 20.3648H24.8496C24.2155 20.3648 23.743 20.8816 23.7992 21.5132L24.2934 27.0373C24.3497 27.6687 24.9149 28.1857 25.5491 28.1857H33.3222C33.9564 28.1857 34.481 28.1857 34.4879 28.1857C34.4949 28.1857 35.019 28.1857 35.6532 28.1857H49.0141C49.6483 28.1857 50.6297 28.1857 51.1949 28.1857C51.7597 28.1857 52.1803 28.6467 52.1291 29.2101C52.0777 29.7734 51.9898 30.7517 51.9335 31.383L50.3445 49.1921C50.2877 49.8237 50.216 50.6306 50.1851 50.9853C50.1535 51.3397 49.628 51.7684 49.0169 51.9379L35.6112 55.655C35.0001 55.8242 34.4923 55.9644 34.4829 55.9665C34.4734 55.9686 33.9658 55.8314 33.3545 55.6619L19.9346 51.9381C19.3235 51.7686 18.7774 51.113 18.7211 50.4814L17.8573 40.7857C17.801 40.154 18.274 39.6373 18.9081 39.6373H20.1329C20.767 39.6373 21.8047 39.6373 22.4389 39.6373H24.2653C24.8994 39.6373 25.4642 40.154 25.5209 40.7857L25.8597 44.5812C25.9159 45.2128 26.4627 45.8647 27.0752 46.0301L33.3524 47.7252C33.9645 47.8906 34.4676 48.0259 34.4704 48.0259C34.4732 48.0259 34.9761 47.8903 35.5884 47.725L41.8769 46.0257C42.4889 45.8603 43.0362 45.2082 43.0929 44.5768L43.7748 36.9724C43.8315 36.3408 43.359 35.824 42.7249 35.824H35.6532C35.019 35.824 34.4949 35.824 34.4879 35.824C34.481 35.824 33.9564 35.824 33.3222 35.824H18.5662C17.932 35.824 17.3672 35.307 17.311 34.6756L15.6377 15.9262C15.5815 15.2945 15.4941 14.3168 15.4436 13.7532C15.3935 13.1898 15.8711 12.7288 16.5052 12.7288H33.3222C33.9564 12.7288 34.481 12.7288 34.4879 12.7288C34.4949 12.7288 35.019 12.7288 35.6532 12.7288H52.4499C53.0838 12.7288 53.5616 13.1898 53.5113 13.7534Z" fill="#F05D5E"/>
</svg>
