<svg width="69" height="69" viewBox="0 0 69 69" fill="none" xmlns="http://www.w3.org/2000/svg">
<path d="M69 0H0V69H69V0Z" fill="#F05D5E"/>
<path fill-rule="evenodd" clip-rule="evenodd" d="M34.5 31.625C34.5 45.279 34.5 52.9456 34.5 54.625C34.5 57.1441 32.9967 60.375 28.75 60.375C21.892 60.375 21.5625 54.625 21.5625 54.625M59.7711 38.8586C58.0459 35.9529 55.7589 34.5 52.9102 34.5C48.462 34.5 46 37.375 46 40.25C46 43.125 47.4375 46 53.2117 47.4375C56.8861 48.3522 60.375 50.3125 60.375 54.625C60.375 58.9375 56.5931 60.375 53.1875 60.375C48.8352 60.375 45.9602 58.4583 44.5625 54.625" fill="#F05D5E"/>
<path d="M34.5 31.625C34.5 45.279 34.5 52.9456 34.5 54.625C34.5 57.1441 32.9967 60.375 28.75 60.375C21.892 60.375 21.5625 54.625 21.5625 54.625M59.7711 38.8586C58.0459 35.9529 55.7589 34.5 52.9102 34.5C48.462 34.5 46 37.375 46 40.25C46 43.125 47.4375 46 53.2117 47.4375C56.8861 48.3522 60.375 50.3125 60.375 54.625C60.375 58.9375 56.5931 60.375 53.1875 60.375C48.8352 60.375 45.9602 58.4583 44.5625 54.625" stroke="#14213D" stroke-width="2"/>
</svg>
