<svg width="43" height="43" viewBox="0 0 43 43" fill="none" xmlns="http://www.w3.org/2000/svg">
<g clip-path="url(#clip0_2046_548)">
<path d="M10.0092 13.8335H1.3769C0.993782 13.8335 0.68335 14.1441 0.68335 14.527V42.259C0.68335 42.6421 0.993782 42.9525 1.3769 42.9525H10.0092C10.3923 42.9525 10.7028 42.6421 10.7028 42.259V14.527C10.7028 14.1441 10.3923 13.8335 10.0092 13.8335Z" fill="#F05D5E"/>
<path d="M5.69625 0.0472412C2.55531 0.0472412 0 2.59978 0 5.73725C0 8.87611 2.55531 11.4296 5.69625 11.4296C8.8347 11.4296 11.3879 8.87597 11.3879 5.73725C11.3881 2.59978 8.8347 0.0472412 5.69625 0.0472412Z" fill="#F05D5E"/>
<path d="M31.9661 13.1442C28.4991 13.1442 25.9361 14.6346 24.3816 16.3281V14.527C24.3816 14.144 24.0712 13.8334 23.688 13.8334H15.4211C15.038 13.8334 14.7275 14.144 14.7275 14.527V42.2589C14.7275 42.642 15.038 42.9525 15.4211 42.9525H24.0345C24.4177 42.9525 24.7281 42.642 24.7281 42.2589V28.538C24.7281 23.9144 25.984 22.1131 29.207 22.1131C32.7172 22.1131 32.9962 25.0008 32.9962 28.7759V42.259C32.9962 42.6422 33.3066 42.9526 33.6897 42.9526H42.3064C42.6895 42.9526 42.9999 42.6422 42.9999 42.259V27.0476C42.9999 20.1724 41.689 13.1442 31.9661 13.1442Z" fill="#F05D5E"/>
</g>
<defs>
<clipPath id="clip0_2046_548">
<rect width="43" height="43" fill="white"/>
</clipPath>
</defs>
</svg>
