<svg width="43" height="43" viewBox="0 0 43 43" fill="none" xmlns="http://www.w3.org/2000/svg">
<g clip-path="url(#clip0_2044_500)">
<path d="M42.5391 32.6099C40.9384 29.5839 35.3798 26.3028 35.1351 26.1593C34.4209 25.7528 33.6755 25.5376 32.978 25.5376C31.9409 25.5376 31.092 26.0127 30.5778 26.8768C29.7647 27.8493 28.7563 28.986 28.5116 29.1622C26.6175 30.4472 25.1348 30.3013 23.4943 28.6608L14.3382 19.5039C12.708 17.8737 12.5582 16.3727 13.8344 14.489C14.013 14.2427 15.1497 13.2335 16.1222 12.4196C16.7424 12.0505 17.1681 11.5021 17.3546 10.8293C17.6025 9.9341 17.42 8.88106 16.8349 7.85513C16.697 7.61917 13.4143 2.05983 10.3899 0.459942C9.82553 0.16101 9.1894 0.00317383 8.55168 0.00317383C7.50103 0.00317383 6.51256 0.41291 5.76962 1.15506L3.74644 3.17744C0.546673 6.37641 -0.611589 10.0027 0.301948 13.9549C1.06403 17.2488 3.28489 20.7539 6.90396 24.3721L18.6261 36.0943C23.2065 40.6747 27.5733 42.9976 31.6053 42.9976C34.5715 42.9976 37.3353 41.7373 39.8208 39.2526L41.8432 37.2302C43.0724 36.0018 43.3514 34.1444 42.5391 32.6099Z" fill="#F05D5E"/>
<path d="M23.5637 19.8698C23.6609 19.9105 23.7646 19.9312 23.8682 19.9312H33.434C33.8741 19.9312 34.2312 19.5749 34.2312 19.134C34.2312 18.6932 33.8741 18.3369 33.434 18.3369H25.7925L37.9834 6.14603C38.2951 5.83435 38.2951 5.33055 37.9834 5.01886C37.6717 4.70717 37.1679 4.70717 36.8562 5.01886L24.6653 17.2097V9.56821C24.6653 9.12738 24.3082 8.77106 23.8682 8.77106C23.4282 8.77106 23.071 9.12738 23.071 9.56821V19.134C23.071 19.2377 23.0926 19.3413 23.1324 19.4386C23.2137 19.6339 23.3692 19.7893 23.5637 19.8698Z" fill="#F05D5E"/>
</g>
<defs>
<clipPath id="clip0_2044_500">
<rect width="43" height="43" fill="white"/>
</clipPath>
</defs>
</svg>
