<svg width="69" height="69" viewBox="0 0 69 69" fill="none" xmlns="http://www.w3.org/2000/svg">
<path d="M53.1351 30.0085C50.0035 30.0085 48.9336 31.6872 48.9336 33.071C48.9336 34.5807 49.6469 35.6303 53.8484 37.9344C60.0708 41.1228 62 44.1817 62 48.6712C62 55.3822 57.1668 58.9875 50.6285 58.9875C47.8225 59.0975 45.0335 58.4806 42.504 57.1902C42.2255 57.0644 42.1882 56.8559 42.1882 56.5181V50.3463C42.1882 49.9257 42.3852 49.7999 42.6637 50.012C45.0392 51.6286 47.8043 52.4871 50.6285 52.485C53.7601 52.485 55.0677 51.1011 55.0677 49.214C55.0677 47.7043 54.1575 46.3636 50.153 44.1817C44.525 41.3312 42.1882 38.4305 42.1882 33.6138C42.1882 28.2041 46.1893 23.7181 53.1249 23.7181C55.5392 23.6084 57.9499 24.008 60.2168 24.8935C60.3474 24.9832 60.453 25.1081 60.5229 25.2553C60.5927 25.4024 60.6242 25.5667 60.6142 25.731V31.4823C60.6142 31.8166 60.4172 32.0286 60.0198 31.9028C57.9247 30.6264 55.5421 29.9743 53.1249 30.0157L53.1351 30.0085ZM19.0546 34.9977C19.9648 35.0804 20.6781 35.0804 22.2642 35.0804C26.9005 35.0804 31.2582 33.3622 31.2582 26.6944C31.2582 21.3673 28.1266 18.6858 22.8586 18.6858C21.2725 18.6858 19.7678 18.7685 19.0546 18.8116V34.9977ZM12 12.7117C12 12.417 12.5536 12.2085 12.8729 12.2085C15.4101 12.0827 19.1734 12 23.0964 12C34.0739 12 38.3535 18.3731 38.3535 26.5111C38.3535 37.1616 31.0612 41.7338 22.108 41.7338C20.6034 41.7338 20.0871 41.6511 19.0172 41.6511V57.7546C19.0172 58.0889 18.8983 58.2578 18.5417 58.2578H12.4789C12.163 58.2578 12.0034 58.132 12.0034 57.7546V12.7297L12 12.7117Z" fill="#F05D5E"/>
</svg>
