<svg width="97" height="85" viewBox="0 0 97 85" fill="none" xmlns="http://www.w3.org/2000/svg">
<g clip-path="url(#clip0_2084_318)">
<path fill-rule="evenodd" clip-rule="evenodd" d="M7 49.6432V7.06351H90V49.6432H7ZM97 2.08221V49.6432V56.6432H96.9923C97.012 56.6634 97.0222 56.6842 97.0222 56.7054V68.2739C97.0222 68.474 96.116 68.635 94.9998 68.635H61.4073L63.8467 80.8386H64.666C65.7819 80.8386 66.6877 81.7565 66.6877 82.8907C66.6877 84.019 65.7817 84.9366 64.666 84.9366H32.3316C31.2185 84.9366 30.3127 84.0188 30.3127 82.8907C30.3127 81.7567 31.2185 80.8386 32.3316 80.8386H33.1496L35.586 68.635H2.01942C0.906069 68.635 6.86561e-05 68.474 6.86561e-05 68.2738V56.7054C6.86561e-05 56.6842 0.0103201 56.6634 0.029982 56.6432H0V49.6432V2.08221C0 0.966269 0.905793 0.0635071 2.01889 0.0635071H94.9781C96.094 0.0635071 97 0.966269 97 2.08221Z" fill="#F05D5E"/>
<path d="M69.1869 12.3562H12.6681C11.6276 12.3562 10.7833 13.2006 10.7833 14.241C10.7833 15.2816 11.6278 16.126 12.6681 16.126H69.1869C70.2273 16.126 71.0719 15.2816 71.0719 14.241C71.0719 13.2006 70.2271 12.3562 69.1869 12.3562Z" fill="#F05D5E"/>
<path d="M12.6681 23.6601H42.8124C43.8529 23.6601 44.6945 22.8183 44.6945 21.7779C44.6945 20.7347 43.8529 19.8931 42.8124 19.8931H12.6681C11.6276 19.8931 10.7833 20.7347 10.7833 21.7779C10.7831 22.8183 11.6276 23.6601 12.6681 23.6601Z" fill="#F05D5E"/>
<path d="M12.6681 31.1964H54.1162C55.1568 31.1964 55.9984 30.352 55.9984 29.3116C55.9984 28.2713 55.1566 27.4297 54.1162 27.4297H12.6681C11.6276 27.4297 10.7833 28.2713 10.7833 29.3116C10.7831 30.352 11.6276 31.1964 12.6681 31.1964Z" fill="#F05D5E"/>
<path d="M12.668 38.7308L39.0424 38.7336C40.0856 38.7336 40.9273 37.8891 40.9273 36.8488C40.9273 35.8084 40.0856 34.964 39.0424 34.964H12.668C11.6275 34.964 10.7832 35.8084 10.7832 36.8488C10.783 37.889 11.6275 38.7308 12.668 38.7308Z" fill="#F05D5E"/>
<path d="M61.65 42.5002H12.668C11.6275 42.5002 10.7832 43.3446 10.7832 44.3823C10.7832 45.4255 11.6276 46.2673 12.668 46.2673H61.65C62.6932 46.2673 63.535 45.4255 63.535 44.3852C63.535 43.345 62.6932 42.5002 61.65 42.5002Z" fill="#F05D5E"/>
</g>
<defs>
<clipPath id="clip0_2084_318">
<rect width="97" height="85" fill="white"/>
</clipPath>
</defs>
</svg>
