<svg width="69" height="69" viewBox="0 0 69 69" fill="none" xmlns="http://www.w3.org/2000/svg">
<g clip-path="url(#clip0_2084_291)">
<path d="M57.2125 55.2L44.85 34.5L57.2125 13.8L63.25 34.5L57.2125 55.2ZM29.9 53.1875L14.375 37.95H39.1L51.4625 58.65L29.9 53.1875ZM29.9 15.525L51.4625 10.0625L39.1 30.7625H14.0875C14.0875 31.05 29.9 15.525 29.9 15.525ZM61.525 0L33.35 7.1875L29.0375 14.375H20.7L0 34.5L20.7 54.625H29.0375L33.0625 61.8125L61.2375 69L68.7125 41.6875L64.6875 34.5L69 27.3125L61.525 0Z" fill="#F05D5E"/>
</g>
<defs>
<clipPath id="clip0_2084_291">
<rect width="69" height="69" fill="white"/>
</clipPath>
</defs>
</svg>
