<svg width="115" height="69" viewBox="0 0 115 69" fill="none" xmlns="http://www.w3.org/2000/svg">
<path d="M111.183 56.4147L103.288 16.6948C101.552 7.45164 93.61 0.456407 84.0362 0.366563V0.359376L31.1524 0.359376C21.4942 0.355783 13.4478 7.39234 11.7013 16.6984L3.81839 56.4147C3.67104 57.1155 3.58479 57.8342 3.59378 58.5799C3.58479 64.1358 8.01589 68.6406 13.4838 68.6406C17.0092 68.6406 20.1017 66.7737 21.859 63.9562L34.8684 47.7142C37.011 49.7487 39.8523 50.8838 42.807 50.8857C49.2362 50.8821 54.4489 45.5867 54.4489 39.0425L60.738 39.0407C60.738 45.5795 65.9561 50.8821 72.3853 50.8821C75.286 50.8819 78.0801 49.7887 80.2107 47.8202L93.1392 63.9562C94.8947 66.7665 97.9908 68.6406 101.507 68.6406C106.975 68.6406 111.412 64.1358 111.406 58.5763C111.408 57.85 111.333 57.1255 111.183 56.4147M37.5924 15.0686C38.8556 13.782 40.2985 14.1576 40.807 15.9041L40.7999 21.5212C40.2985 23.2695 38.8556 23.6469 37.596 22.3621L36.3041 21.0504C35.6964 20.4246 35.3565 19.5867 35.3565 18.7145C35.3565 17.8422 35.6964 17.0043 36.3041 16.3785L37.5924 15.0686M28.3978 8.9107L33.9178 8.90531C35.6338 9.41203 36.0022 10.8855 34.7354 12.1702L33.456 13.4784C33.156 13.7839 32.798 14.0266 32.4031 14.1923C32.0082 14.358 31.5843 14.4433 31.156 14.4433C30.7278 14.4433 30.3038 14.358 29.9089 14.1923C29.514 14.0266 29.1561 13.7839 28.856 13.4784L27.5659 12.1684C26.3009 10.8837 26.6692 9.41203 28.3978 8.9107M24.7196 22.3567C23.4528 23.6469 22.0046 23.2695 21.5032 21.5212L21.5104 15.9041C22.0046 14.1558 23.4528 13.7802 24.716 15.0668L26.0026 16.3767C26.6111 17.002 26.9516 17.8401 26.9516 18.7127C26.9516 19.5852 26.6111 20.4233 26.0026 21.0486L24.7196 22.3567M33.9178 28.5182L28.3906 28.5236C26.6692 28.0097 26.3009 26.5452 27.5677 25.2587L28.8578 23.9487C29.1579 23.6436 29.5156 23.4012 29.9103 23.2356C30.3049 23.0701 30.7286 22.9848 31.1566 22.9846C31.5845 22.9844 32.0082 23.0694 32.403 23.2347C32.7978 23.3999 33.1558 23.642 33.456 23.947L34.7408 25.2587C36.0022 26.5452 35.6302 28.0097 33.9178 28.5182ZM42.798 46.9685C38.4927 46.9721 34.9942 43.4233 34.9942 39.0389C34.9942 34.6581 38.4927 31.1039 42.807 31.1039C47.1105 31.1093 50.6036 34.6581 50.6036 39.0371C50.609 43.4251 47.1105 46.9757 42.798 46.9685ZM79.208 12.0984C80.9977 12.102 82.4514 13.5808 82.4514 15.4028C82.455 17.2338 81.0013 18.7162 79.2009 18.7073C77.404 18.7127 75.9503 17.2338 75.9503 15.4064C75.9521 13.5808 77.404 12.102 79.208 12.0984M72.3853 46.9721C68.08 46.9721 64.5869 43.4197 64.5833 39.0389C64.5869 34.6581 68.0782 31.1039 72.3853 31.1039C76.6996 31.1075 80.1945 34.6581 80.1909 39.0389C80.1909 43.4197 76.7014 46.9685 72.3853 46.9721ZM79.5063 28.6296C77.7094 28.6296 76.254 27.1454 76.254 25.3216C76.2522 23.4941 77.7094 22.0135 79.5063 22.0135C81.3032 22.0135 82.7551 23.4941 82.7605 25.3216C82.7605 27.1472 81.2996 28.6296 79.5063 28.6296ZM88.5715 8.7975C90.3666 8.7957 91.8221 10.2745 91.8257 12.102C91.8221 13.924 90.3666 15.4064 88.5715 15.4064C86.7747 15.4064 85.321 13.924 85.321 12.102C85.3174 10.2727 86.7675 8.79031 88.5715 8.7975ZM88.8734 25.3234C87.0801 25.3252 85.6247 23.8463 85.6301 22.0207C85.6247 20.1933 87.0801 18.7109 88.877 18.7162C90.6703 18.7127 92.1294 20.1897 92.1294 22.0153C92.1276 23.8445 90.6703 25.3252 88.8734 25.3234" fill="#F05D5E"/>
</svg>
