<svg width="100" height="100" viewBox="0 0 100 100" fill="none" xmlns="http://www.w3.org/2000/svg">
<g clip-path="url(#clip0_2084_332)">
<path d="M85.3552 14.6447C75.9114 5.20097 63.3552 0 50 0C36.6447 0 24.0887 5.20116 14.6449 14.6449C5.20121 24.0886 0.000244141 36.6447 0.000244141 49.9997C0.000244141 63.355 5.20121 75.9114 14.6449 85.3549C24.0885 94.7986 36.6443 99.9998 50 100C63.3556 100 75.9114 94.7988 85.3552 85.3551C94.7989 75.9114 99.9999 63.3552 99.9999 49.9999C99.9999 36.6443 94.7989 24.0884 85.3552 14.6447ZM92.1499 30.2624C88.2126 41.2536 81.8188 50.7681 73.6259 57.8102C66.3644 64.052 57.8236 68.1397 49.4109 69.4296C48.257 63.0686 48.8574 56.8675 51.1533 51.6253C58.4962 50.8233 65.77 47.1624 71.7413 41.2366C77.7954 35.229 82.0522 27.3919 84.1665 18.4226C87.3981 21.9171 90.1016 25.906 92.1499 30.2624ZM50 3.45175C62.0191 3.45175 72.9884 8.03084 81.2561 15.5359C80.7413 18.2142 80.0284 20.7914 79.1278 23.2476C70.0187 12.5207 55.6521 5.81386 39.6763 4.60761C42.998 3.85234 46.4529 3.45175 50 3.45175ZM29.9074 8.0162C49.3906 6.69979 67.539 13.8867 77.6222 26.866C75.5858 31.2257 72.9087 35.1263 69.656 38.4361C63.8941 31.3078 55.7898 25.7759 46.0935 22.3767C36.45 18.9961 25.7734 17.98 14.9678 19.3843C19.1063 14.6549 24.1836 10.7668 29.9074 8.0162ZM11.8494 23.3628C23.3307 21.2808 34.7611 22.0617 44.9513 25.6339C53.9876 28.8017 61.7982 34.1544 67.1216 40.7952C62.1898 44.9749 56.5191 47.5554 50.8314 48.1882C46.4652 42.23 39.658 37.7609 31.5406 35.5529C23.3006 33.3115 14.3729 33.5464 5.53754 36.2091C6.97738 31.5769 9.12464 27.2537 11.8494 23.3628ZM3.45219 49.9995C3.45219 46.6288 3.81586 43.3413 4.49965 40.1718C7.0848 39.2741 9.68187 38.6001 12.2682 38.1507C7.54242 51.3759 8.90101 67.1342 15.8082 81.5491C8.1432 73.2483 3.45219 62.162 3.45219 49.9995ZM23.667 88.361C12.802 72.1528 9.95999 52.8575 16.1549 37.6454C20.9486 37.2288 25.6652 37.5974 30.158 38.7593C26.866 47.3138 26.1273 57.0981 28.0316 67.1944C29.9277 77.2483 34.3943 87.0133 41.0261 95.6762C34.6871 94.433 28.8059 91.8996 23.667 88.361ZM50 96.5481C48.6603 96.5481 47.3345 96.4877 46.023 96.3764C38.4709 87.4698 33.4262 77.1733 31.4234 66.5549C29.6488 57.1454 30.3789 47.7048 33.4678 39.7743C39.5535 41.9558 44.6236 45.5763 48.0156 50.1855C45.0388 56.9458 44.572 65.0755 46.7183 73.2094C48.8968 81.4663 53.5644 89.0799 60.2878 95.4002C56.9771 96.15 53.5343 96.5481 50 96.5481ZM64.2386 94.3178C62.1689 92.5278 60.287 90.6158 58.6048 88.6012C72.4487 86.0756 85.4407 76.9883 94.4725 63.7563C89.9901 78.2176 78.6325 89.6822 64.2386 94.3178ZM56.224 85.4879C53.4665 81.5444 51.4271 77.2754 50.1869 72.8038C59.2411 71.378 68.0841 67.1255 75.8761 60.4278C83.6347 53.7591 89.8581 45.0083 94.0448 34.9335C95.6665 39.6613 96.5485 44.7292 96.5485 49.9997C96.5485 51.2032 96.5024 52.3966 96.4122 53.5776C87.8122 71.1161 72.5101 83.2448 56.224 85.4879Z" fill="#F05D5E"/>
</g>
<defs>
<clipPath id="clip0_2084_332">
<rect width="100" height="100" fill="white"/>
</clipPath>
</defs>
</svg>
