<svg width="69" height="69" viewBox="0 0 69 69" fill="none" xmlns="http://www.w3.org/2000/svg">
<path d="M62.5528 10.8459L50.1198 4.86018C49.4177 4.52165 48.6277 4.40993 47.8592 4.54052C47.0907 4.67111 46.3819 5.03753 45.831 5.589L5.13183 42.6937C4.63803 43.1418 4.34244 43.7677 4.31009 44.4337C4.27774 45.0997 4.51128 45.7513 4.95933 46.2451C5.01324 46.3033 5.06714 46.3594 5.12536 46.4111L8.44814 49.4299C8.88233 49.825 9.44122 50.0556 10.0277 50.0816C10.6143 50.1076 11.1913 49.9274 11.6588 49.5722L60.6811 12.3984C61.0514 12.1175 61.4928 11.9454 61.9555 11.9017C62.4183 11.8579 62.8841 11.9442 63.3004 12.1508C63.7168 12.3575 64.0672 12.6762 64.3123 13.0712C64.5573 13.4661 64.6873 13.9217 64.6875 14.3865V14.242C64.6874 13.5324 64.487 12.8372 64.1094 12.2364C63.7318 11.6356 63.1922 11.1537 62.5528 10.8459Z" fill="#AF4445"/>
<path d="M62.5528 58.1541L50.1198 64.142C49.4175 64.4796 48.6277 64.5907 47.8594 64.4602C47.0912 64.3296 46.3824 63.9638 45.831 63.4132L5.13183 26.3063C4.63803 25.8582 4.34244 25.2323 4.31009 24.5663C4.27774 23.9003 4.51128 23.2487 4.95933 22.7549C5.01324 22.6967 5.06714 22.6406 5.12536 22.5889L8.44814 19.5701C8.88277 19.1733 9.44294 18.9417 10.0309 18.9157C10.6189 18.8897 11.1973 19.0709 11.6653 19.4278L60.6811 56.6016C61.0514 56.8825 61.4928 57.0546 61.9555 57.0983C62.4183 57.1421 62.8841 57.0558 63.3004 56.8492C63.7168 56.6426 64.0672 56.3238 64.3123 55.9288C64.5573 55.5339 64.6873 55.0783 64.6875 54.6135V54.7688C64.6851 55.4765 64.4837 56.1693 64.1062 56.7679C63.7287 57.3666 63.1904 57.8469 62.5528 58.1541Z" fill="#D65657"/>
<path d="M50.1199 64.1419C49.4176 64.4795 48.6278 64.5907 47.8595 64.4601C47.0913 64.3296 46.3825 63.9637 45.8311 63.4131C46.1408 63.7187 46.5337 63.9261 46.9608 64.0094C47.3878 64.0926 47.8299 64.048 48.2316 63.8811C48.6334 63.7141 48.977 63.4324 49.2193 63.071C49.4616 62.7097 49.5919 62.2849 49.5938 61.8498V7.15006C49.5942 6.71297 49.4648 6.2856 49.222 5.92209C48.9793 5.55859 48.6342 5.2753 48.2303 5.10812C47.8264 4.94094 47.382 4.89739 46.9534 4.98299C46.5248 5.06858 46.1312 5.27947 45.8225 5.58894C46.3735 5.03768 47.0821 4.67123 47.8505 4.54028C48.6188 4.40933 49.4088 4.52034 50.1113 4.85797L62.5421 10.8351C63.1835 11.1413 63.7253 11.6226 64.1049 12.2235C64.4846 12.8244 64.6865 13.5204 64.6875 14.2312V54.7687C64.6877 55.4789 64.4872 56.1747 64.1092 56.776C63.7311 57.3772 63.1909 57.8594 62.5507 58.1669L50.1199 64.1419Z" fill="#F05D5E"/>
</svg>
