<?xml version="1.0" encoding="UTF-8"?>
<svg xmlns="http://www.w3.org/2000/svg" xmlns:xlink="http://www.w3.org/1999/xlink" viewBox="0 0 50 50" width="50px" height="50px">
<g id="surface4245937">
<path style=" stroke:none;fill-rule:nonzero;fill:rgb(94.117647%,32.941177%,30.980393%);fill-opacity:1;" d="M 5 50 C 2.238281 50 0 47.761719 0 45 L 0 5 C 0 2.238281 2.238281 0 5 0 L 45 0 C 47.761719 0 50 2.238281 50 5 L 50 45 C 50 47.761719 47.761719 50 45 50 Z M 5 50 "/>
<path style=" stroke:none;fill-rule:nonzero;fill:rgb(100%,100%,100%);fill-opacity:1;" d="M 19.335938 11.25 C 14.898438 11.25 11.25 14.894531 11.25 19.335938 L 11.25 30.664062 C 11.25 35.101562 14.894531 38.75 19.335938 38.75 L 30.664062 38.75 C 35.101562 38.75 38.75 35.105469 38.75 30.664062 L 38.75 19.335938 C 38.75 14.898438 35.105469 11.25 30.664062 11.25 Z M 19.335938 13.75 L 30.664062 13.75 C 33.753906 13.75 36.25 16.246094 36.25 19.335938 L 36.25 30.664062 C 36.25 33.753906 33.753906 36.25 30.664062 36.25 L 19.335938 36.25 C 16.246094 36.25 13.75 33.753906 13.75 30.664062 L 13.75 19.335938 C 13.75 16.246094 16.246094 13.75 19.335938 13.75 Z M 32.382812 16.484375 C 31.753906 16.484375 31.25 16.988281 31.25 17.617188 C 31.25 18.246094 31.753906 18.75 32.382812 18.75 C 33.011719 18.75 33.515625 18.246094 33.515625 17.617188 C 33.515625 16.988281 33.011719 16.484375 32.382812 16.484375 Z M 25 17.5 C 20.875 17.5 17.5 20.875 17.5 25 C 17.5 29.125 20.875 32.5 25 32.5 C 29.125 32.5 32.5 29.125 32.5 25 C 32.5 20.875 29.125 17.5 25 17.5 Z M 25 20 C 27.777344 20 30 22.222656 30 25 C 30 27.777344 27.777344 30 25 30 C 22.222656 30 20 27.777344 20 25 C 20 22.222656 22.222656 20 25 20 Z M 25 20 "/>
</g>
</svg>
