<?xml version="1.0" encoding="UTF-8"?>
<svg xmlns="http://www.w3.org/2000/svg" xmlns:xlink="http://www.w3.org/1999/xlink" viewBox="0 0 50 50" width="50px" height="50px">
<g id="surface4239468">
<path style=" stroke:none;fill-rule:nonzero;fill:rgb(94.117647%,32.941177%,30.980393%);fill-opacity:1;" d="M 5 50 C 2.238281 50 0 47.761719 0 45 L 0 5 C 0 2.238281 2.238281 0 5 0 L 45 0 C 47.761719 0 50 2.238281 50 5 L 50 45 C 50 47.761719 47.761719 50 45 50 Z M 5 50 "/>
<path style=" stroke:none;fill-rule:nonzero;fill:rgb(100%,100%,100%);fill-opacity:1;" d="M 25 15.601562 C 21.085938 15.601562 17.507812 16.613281 14.785156 18.285156 L 9.558594 18.285156 C 9.558594 18.285156 10.734375 19.730469 11.289062 21.359375 C 10.207031 22.730469 9.558594 24.460938 9.558594 26.34375 C 9.558594 30.792969 13.164062 34.398438 17.613281 34.398438 C 19.960938 34.398438 22.070312 33.386719 23.542969 31.785156 L 25 33.730469 L 26.457031 31.785156 C 27.929688 33.386719 30.039062 34.398438 32.386719 34.398438 C 36.835938 34.398438 40.441406 30.792969 40.441406 26.34375 C 40.441406 24.460938 39.792969 22.730469 38.710938 21.359375 C 39.265625 19.730469 40.441406 18.285156 40.441406 18.285156 L 35.207031 18.285156 C 32.484375 16.613281 28.914062 15.601562 25 15.601562 Z M 17.613281 20.300781 C 20.953125 20.300781 23.65625 23.003906 23.65625 26.34375 C 23.65625 29.679688 20.953125 32.386719 17.613281 32.386719 C 14.277344 32.386719 11.570312 29.683594 11.570312 26.34375 C 11.570312 23.003906 14.277344 20.300781 17.613281 20.300781 Z M 32.386719 20.300781 C 35.722656 20.300781 38.429688 23.003906 38.429688 26.34375 C 38.429688 29.679688 35.722656 32.386719 32.386719 32.386719 C 29.046875 32.386719 26.34375 29.683594 26.34375 26.34375 C 26.34375 23.003906 29.046875 20.300781 32.386719 20.300781 Z M 17.613281 22.3125 C 15.390625 22.3125 13.585938 24.117188 13.585938 26.34375 C 13.585938 28.566406 15.390625 30.371094 17.613281 30.371094 C 19.839844 30.371094 21.644531 28.566406 21.644531 26.34375 C 21.644531 24.117188 19.839844 22.3125 17.613281 22.3125 Z M 32.386719 22.3125 C 30.160156 22.3125 28.355469 24.117188 28.355469 26.34375 C 28.355469 28.566406 30.160156 30.371094 32.386719 30.371094 C 34.609375 30.371094 36.414062 28.566406 36.414062 26.34375 C 36.414062 24.117188 34.609375 22.3125 32.386719 22.3125 Z M 17.613281 23.65625 C 19.097656 23.65625 20.300781 24.859375 20.300781 26.34375 C 20.300781 27.828125 19.097656 29.027344 17.613281 29.027344 C 16.128906 29.027344 14.929688 27.828125 14.929688 26.34375 C 14.929688 24.859375 16.128906 23.65625 17.613281 23.65625 Z M 32.386719 23.65625 C 33.871094 23.65625 35.070312 24.859375 35.070312 26.34375 C 35.070312 27.828125 33.871094 29.027344 32.386719 29.027344 C 30.902344 29.027344 29.699219 27.828125 29.699219 26.34375 C 29.699219 24.859375 30.902344 23.65625 32.386719 23.65625 Z M 17.613281 25 C 16.871094 25 16.269531 25.601562 16.269531 26.34375 C 16.269531 27.085938 16.871094 27.6875 17.613281 27.6875 C 18.355469 27.6875 18.957031 27.085938 18.957031 26.34375 C 18.957031 25.601562 18.355469 25 17.613281 25 Z M 32.386719 25 C 31.644531 25 31.042969 25.601562 31.042969 26.34375 C 31.042969 27.085938 31.644531 27.6875 32.386719 27.6875 C 33.128906 27.6875 33.730469 27.085938 33.730469 26.34375 C 33.730469 25.601562 33.128906 25 32.386719 25 Z M 32.386719 25 "/>
</g>
</svg>
