<?xml version="1.0" encoding="UTF-8"?>
<svg xmlns="http://www.w3.org/2000/svg" xmlns:xlink="http://www.w3.org/1999/xlink" viewBox="0 0 50 50" width="50px" height="50px">
<g id="surface8105590">
<path style=" stroke:none;fill-rule:nonzero;fill:rgb(94.117647%,32.941177%,30.980393%);fill-opacity:1;" d="M 5 50 C 2.238281 50 0 47.761719 0 45 L 0 5 C 0 2.238281 2.238281 0 5 0 L 45 0 C 47.761719 0 50 2.238281 50 5 L 50 45 C 50 47.761719 47.761719 50 45 50 Z M 5 50 "/>
<path style=" stroke:none;fill-rule:nonzero;fill:rgb(100%,100%,100%);fill-opacity:1;" d="M 39.972656 15.914062 C 39.613281 14.570312 38.554688 13.511719 37.210938 13.152344 C 34.773438 12.5 25 12.5 25 12.5 C 25 12.5 15.226562 12.5 12.789062 13.152344 C 11.445312 13.511719 10.386719 14.570312 10.027344 15.914062 C 9.375 18.351562 9.375 25 9.375 25 C 9.375 25 9.375 31.648438 10.027344 34.085938 C 10.386719 35.429688 11.445312 36.488281 12.789062 36.847656 C 15.226562 37.5 25 37.5 25 37.5 C 25 37.5 34.773438 37.5 37.210938 36.847656 C 38.554688 36.488281 39.613281 35.429688 39.972656 34.085938 C 40.625 31.648438 40.625 25 40.625 25 C 40.625 25 40.625 18.351562 39.972656 15.914062 Z M 21.875 29.058594 L 21.875 20.941406 C 21.875 20.339844 22.527344 19.964844 23.046875 20.265625 L 30.078125 24.324219 C 30.597656 24.625 30.597656 25.375 30.078125 25.675781 L 23.046875 29.734375 C 22.527344 30.039062 21.875 29.660156 21.875 29.058594 Z M 21.875 29.058594 "/>
</g>
</svg>
